<svg
  width="64"
  height="64"
  viewBox="0 0 64 64"
  fill="none"
  xmlns="http://www.w3.org/2000/svg"
  class="x-Poe"
>
  <path
    d="M55.6445 62.4001H8.35565C6.56397 62.4001 4.84567 61.6884 3.57875 60.4214C2.31184 59.1545 1.6001 57.4362 1.6001 55.6445V8.35565C1.6001 6.56397 2.31184 4.84567 3.57875 3.57875C4.84567 2.31184 6.56397 1.6001 8.35565 1.6001H55.6445C57.4362 1.6001 59.1545 2.31184 60.4214 3.57875C61.6884 4.84567 62.4001 6.56397 62.4001 8.35565V55.6445C62.4001 57.4362 61.6884 59.1545 60.4214 60.4214C59.1545 61.6884 57.4362 62.4001 55.6445 62.4001ZM6.66676 6.66676V57.3334H57.3334V6.66676H6.66676ZM52.2668 48.889H11.7334L21.8668 35.3779L25.2445 38.7557L35.3779 25.2445L52.2668 48.889ZM20.1779 28.6223C18.8341 28.6223 17.5454 28.0885 16.5952 27.1383C15.645 26.1881 15.1112 24.8994 15.1112 23.5557C15.1112 22.2119 15.645 20.9232 16.5952 19.973C17.5454 19.0228 18.8341 18.489 20.1779 18.489C21.5216 18.489 22.8104 19.0228 23.7606 19.973C24.7107 20.9232 25.2445 22.2119 25.2445 23.5557C25.2445 24.8994 24.7107 26.1881 23.7606 27.1383C22.8104 28.0885 21.5216 28.6223 20.1779 28.6223Z"
    fill="white"
    fill-opacity="0.1"
  ></path>
</svg>
